<?xml version="1.0" encoding="UTF-8" standalone="no"?>
<!-- Created with Inkscape (http://www.inkscape.org/) -->

<svg
   xmlns:dc="http://purl.org/dc/elements/1.1/"
   xmlns:cc="http://creativecommons.org/ns#"
   xmlns:rdf="http://www.w3.org/1999/02/22-rdf-syntax-ns#"
   xmlns:svg="http://www.w3.org/2000/svg"
   xmlns="http://www.w3.org/2000/svg"
   xmlns:sodipodi="http://sodipodi.sourceforge.net/DTD/sodipodi-0.dtd"
   xmlns:inkscape="http://www.inkscape.org/namespaces/inkscape"
   width="520mm"
   height="500mm"
   viewBox="0 0 520 500"
   version="1.1"
   id="svg8"
   inkscape:version="0.92.4 (5da689c313, 2019-01-14)"
   sodipodi:docname="drawing1.svg">
  <defs
     id="defs2">
    <clipPath
       clipPathUnits="userSpaceOnUse"
       id="clipPath580">
      <path
         d="m 5540,691.84 -498.57,287.851 c -19.39,11.2 -35.11,41.239 -35.11,67.079 v 1193.09 c 0,25.86 15.72,37.74 35.11,26.54 L 5540,1978.55 c 19.39,-11.19 35.11,-41.22 35.11,-67.08 V 718.391 c 0,-25.852 -15.72,-37.743 -35.11,-26.551 z"
         id="path578"
         inkscape:connector-curvature="0" />
    </clipPath>
    <linearGradient
       x1="0"
       y1="0"
       x2="1"
       y2="0"
       gradientUnits="userSpaceOnUse"
       gradientTransform="matrix(0,1286.71,965.031,-557.161,5290.72,835.77)"
       spreadMethod="pad"
       id="linearGradient586">
      <stop
         style="stop-opacity:1;stop-color:#2e2971"
         offset="0"
         id="stop582" />
      <stop
         style="stop-opacity:1;stop-color:#5346a5"
         offset="1"
         id="stop584" />
    </linearGradient>
    <clipPath
       clipPathUnits="userSpaceOnUse"
       id="clipPath602">
      <path
         d="m 4939.86,435.559 -435.85,251.64 c -16.95,9.781 -30.69,36.031 -30.69,58.641 v 1108.04 c 0,22.6 13.74,32.98 30.69,23.2 l 435.85,-251.63 c 16.94,-9.79 30.68,-36.05 30.68,-58.65 V 458.77 c 0,-22.61 -13.74,-32.989 -30.68,-23.211"
         id="path600"
         inkscape:connector-curvature="0" />
    </clipPath>
    <linearGradient
       x1="0"
       y1="0"
       x2="1"
       y2="0"
       gradientUnits="userSpaceOnUse"
       gradientTransform="matrix(484.929,-133.459,109.886,-710.014,4454.1,1230.03)"
       spreadMethod="pad"
       id="linearGradient608">
      <stop
         style="stop-opacity:1;stop-color:#423a9c"
         offset="0"
         id="stop604" />
      <stop
         style="stop-opacity:1;stop-color:#5746a5"
         offset="1"
         id="stop606" />
    </linearGradient>
    <clipPath
       clipPathUnits="userSpaceOnUse"
       id="clipPath652">
      <path
         d="m 4573.65,1711.84 c 0,4.6 1.01,8.3 2.74,10.91 -1.73,-2.6 -2.74,-6.31 -2.74,-10.91 m 17.81,12.88 -0.44,0.25 c -2.45,1.42 -4.78,2.09 -6.9,2.09 v 0 c 2.12,0 4.45,-0.67 6.91,-2.09 l 0.43,-0.25 v 0"
         id="path650"
         inkscape:connector-curvature="0" />
    </clipPath>
    <clipPath
       id="clipPath580-8"
       clipPathUnits="userSpaceOnUse">
      <path
         inkscape:connector-curvature="0"
         id="path578-8"
         d="m 5540,691.84 -498.57,287.851 c -19.39,11.2 -35.11,41.239 -35.11,67.079 v 1193.09 c 0,25.86 15.72,37.74 35.11,26.54 L 5540,1978.55 c 19.39,-11.19 35.11,-41.22 35.11,-67.08 V 718.391 c 0,-25.852 -15.72,-37.743 -35.11,-26.551 z" />
    </clipPath>
    <clipPath
       id="clipPath602-4"
       clipPathUnits="userSpaceOnUse">
      <path
         inkscape:connector-curvature="0"
         id="path600-9"
         d="m 4939.86,435.559 -435.85,251.64 c -16.95,9.781 -30.69,36.031 -30.69,58.641 v 1108.04 c 0,22.6 13.74,32.98 30.69,23.2 l 435.85,-251.63 c 16.94,-9.79 30.68,-36.05 30.68,-58.65 V 458.77 c 0,-22.61 -13.74,-32.989 -30.68,-23.211" />
    </clipPath>
    <clipPath
       id="clipPath652-4"
       clipPathUnits="userSpaceOnUse">
      <path
         inkscape:connector-curvature="0"
         id="path650-3"
         d="m 4573.65,1711.84 c 0,4.6 1.01,8.3 2.74,10.91 -1.73,-2.6 -2.74,-6.31 -2.74,-10.91 m 17.81,12.88 -0.44,0.25 c -2.45,1.42 -4.78,2.09 -6.9,2.09 v 0 c 2.12,0 4.45,-0.67 6.91,-2.09 l 0.43,-0.25 v 0" />
    </clipPath>
    <clipPath
       id="clipPath580-0"
       clipPathUnits="userSpaceOnUse">
      <path
         inkscape:connector-curvature="0"
         id="path578-3"
         d="m 5540,691.84 -498.57,287.851 c -19.39,11.2 -35.11,41.239 -35.11,67.079 v 1193.09 c 0,25.86 15.72,37.74 35.11,26.54 L 5540,1978.55 c 19.39,-11.19 35.11,-41.22 35.11,-67.08 V 718.391 c 0,-25.852 -15.72,-37.743 -35.11,-26.551 z" />
    </clipPath>
    <linearGradient
       id="linearGradient586-3"
       spreadMethod="pad"
       gradientTransform="matrix(0,1286.71,965.031,-557.161,5290.72,835.77)"
       gradientUnits="userSpaceOnUse"
       y2="0"
       x2="1"
       y1="0"
       x1="0">
      <stop
         id="stop582-5"
         offset="0"
         style="stop-opacity:1;stop-color:#2e2971" />
      <stop
         id="stop584-4"
         offset="1"
         style="stop-opacity:1;stop-color:#5346a5" />
    </linearGradient>
    <clipPath
       id="clipPath602-3"
       clipPathUnits="userSpaceOnUse">
      <path
         inkscape:connector-curvature="0"
         id="path600-7"
         d="m 4939.86,435.559 -435.85,251.64 c -16.95,9.781 -30.69,36.031 -30.69,58.641 v 1108.04 c 0,22.6 13.74,32.98 30.69,23.2 l 435.85,-251.63 c 16.94,-9.79 30.68,-36.05 30.68,-58.65 V 458.77 c 0,-22.61 -13.74,-32.989 -30.68,-23.211" />
    </clipPath>
    <clipPath
       id="clipPath652-9"
       clipPathUnits="userSpaceOnUse">
      <path
         inkscape:connector-curvature="0"
         id="path650-7"
         d="m 4573.65,1711.84 c 0,4.6 1.01,8.3 2.74,10.91 -1.73,-2.6 -2.74,-6.31 -2.74,-10.91 m 17.81,12.88 -0.44,0.25 c -2.45,1.42 -4.78,2.09 -6.9,2.09 v 0 c 2.12,0 4.45,-0.67 6.91,-2.09 l 0.43,-0.25 v 0" />
    </clipPath>
    <clipPath
       id="clipPath698"
       clipPathUnits="userSpaceOnUse">
      <path
         style="clip-rule:evenodd"
         inkscape:connector-curvature="0"
         id="path696"
         d="m 926.73,1886.08 c 1.801,1.08 3.059,2.25 3.782,3.6 0.808,1.35 1.168,3.06 1.168,5.13 h -4.59 v 11.34 h 8.551 v -10.53 c 0,-3.33 -0.539,-5.94 -1.711,-7.92 -1.078,-1.98 -2.969,-3.6 -5.668,-4.95 l -1.532,3.33 m 185.13,13.59 c -2.25,3.87 -3.33,10.35 -3.33,19.35 v 11.07 c 0,3.33 0.09,6.21 0.36,8.73 0.18,2.52 0.63,4.86 1.26,7.02 0.63,2.16 1.53,3.96 2.52,5.4 1.08,1.35 2.43,2.43 4.05,3.24 1.71,0.81 3.6,1.17 5.94,1.17 3.87,0 7.38,-1.8 10.53,-5.22 v 28.26 h 7.56 v -83.88 h -7.56 v 4.32 c -3.06,-3.51 -6.39,-5.22 -10.26,-5.22 -5.13,0 -8.82,1.89 -11.07,5.76 m 5.94,45.99 c -1.17,-2.7 -1.71,-7.02 -1.71,-13.14 v -14.13 c 0,-6.48 0.54,-11.25 1.71,-14.13 1.17,-2.88 3.42,-4.32 6.66,-4.32 2.97,0 5.85,1.26 8.73,3.96 v 41.58 c -3.06,2.79 -6.03,4.23 -8.91,4.23 -3.24,0 -5.31,-1.35 -6.48,-4.05 m -69.84,-45.99 c -2.25,3.87 -3.33,10.35 -3.33,19.35 v 11.07 c 0,3.33 0.09,6.21 0.36,8.73 0.18,2.52 0.63,4.86 1.26,7.02 0.72,2.16 1.53,3.96 2.52,5.4 1.08,1.35 2.43,2.43 4.14,3.24 1.62,0.81 3.51,1.17 5.85,1.17 3.96,0 7.47,-1.8 10.53,-5.22 v 28.26 h 7.56 v -83.88 h -7.56 v 4.32 c -3.06,-3.51 -6.39,-5.22 -10.17,-5.22 -5.22,0 -8.91,1.89 -11.16,5.76 m 5.94,45.99 c -1.17,-2.7 -1.71,-7.02 -1.71,-13.14 v -14.13 c 0,-6.48 0.54,-11.25 1.71,-14.13 1.17,-2.88 3.42,-4.32 6.75,-4.32 2.88,0 5.76,1.26 8.64,3.96 v 41.58 c -3.06,2.79 -6.03,4.23 -8.91,4.23 -3.15,0 -5.31,-1.35 -6.48,-4.05 m -46.44,-46.44 c -2.52,3.51 -3.78,9.54 -3.78,18.18 v 15.12 c 0,5.76 0.63,10.44 1.8,13.86 1.26,3.42 2.97,5.85 5.31,7.2 2.25,1.35 5.31,2.07 9.18,2.07 2.52,0 4.68,-0.36 6.48,-0.99 1.71,-0.63 3.24,-1.62 4.41,-2.79 1.17,-1.26 2.16,-2.88 2.79,-4.95 0.72,-2.07 1.17,-4.32 1.44,-6.84 0.27,-2.52 0.45,-5.58 0.45,-9.09 l -0.09,-5.4 h -24.12 v -9 c 0,-6.21 0.54,-10.53 1.8,-13.14 1.17,-2.52 3.42,-3.87 6.75,-3.87 2.61,0 4.59,0.9 6.03,2.52 1.44,1.71 2.16,4.68 2.16,9.09 v 4.14 h 7.38 V 1912 c 0,-5.76 -1.17,-10.26 -3.6,-13.41 -2.43,-3.15 -6.48,-4.68 -11.97,-4.68 -5.76,0 -9.9,1.71 -12.42,5.31 m 5.76,47.43 c -1.35,-2.25 -1.89,-6.48 -1.89,-12.69 v -4.05 h 16.74 v 4.95 c 0,2.07 -0.09,3.87 -0.18,5.22 -0.09,1.35 -0.36,2.79 -0.63,4.14 -0.36,1.35 -0.81,2.43 -1.35,3.15 -0.54,0.81 -1.35,1.44 -2.34,1.89 -1.08,0.54 -2.25,0.72 -3.69,0.72 -3.24,0 -5.4,-1.08 -6.66,-3.33 m -43.65,-48.15 c -2.879,3.06 -4.5,7.2 -4.949,12.42 l 6.391,1.98 c 0.449,-4.59 1.437,-7.92 3.148,-10.08 1.711,-2.16 4.051,-3.24 7.11,-3.24 2.609,0 4.679,0.81 6.21,2.34 1.442,1.53 2.161,3.51 2.161,5.94 v 0.36 c -0.09,4.05 -2.52,8.01 -7.289,11.97 l -8.102,6.93 c -2.879,2.43 -4.949,4.77 -6.301,7.02 -1.258,2.25 -1.89,4.86 -1.89,7.83 0,4.32 1.261,7.74 3.871,10.17 2.609,2.34 6.031,3.51 10.441,3.51 4.41,0 7.738,-1.44 10.168,-4.23 2.34,-2.88 3.691,-6.66 3.961,-11.52 l -5.398,-1.71 c -0.18,3.96 -0.993,6.93 -2.43,8.91 -1.352,1.89 -3.422,2.88 -6.031,2.88 -2.34,0 -4.231,-0.63 -5.672,-1.98 -1.348,-1.26 -2.071,-2.97 -2.071,-5.13 0,-1.98 0.364,-3.69 1.082,-5.04 0.719,-1.44 1.981,-2.88 3.872,-4.5 l 8.457,-7.65 c 1.531,-1.26 2.793,-2.43 3.691,-3.42 0.988,-0.99 1.98,-2.25 3.059,-3.69 1.082,-1.53 1.89,-3.06 2.429,-4.77 0.543,-1.71 0.813,-3.51 0.813,-5.49 0,-4.59 -1.352,-8.1 -4.141,-10.62 -2.789,-2.52 -6.48,-3.78 -11.25,-3.78 -4.68,0 -8.551,1.53 -11.34,4.59 m -151.468,0.72 c -2.524,3.51 -3.782,9.54 -3.782,18.18 v 15.12 c 0,5.76 0.539,10.44 1.711,13.86 1.258,3.42 2.969,5.85 5.309,7.2 2.34,1.35 5.398,2.07 9.18,2.07 2.519,0 4.679,-0.36 6.48,-0.99 1.801,-0.63 3.238,-1.62 4.41,-2.79 1.262,-1.26 2.16,-2.88 2.879,-4.95 0.633,-2.07 1.172,-4.32 1.441,-6.84 0.27,-2.52 0.36,-5.58 0.36,-9.09 v -5.4 h -24.211 v -9 c 0,-6.21 0.633,-10.53 1.801,-13.14 1.172,-2.52 3.422,-3.87 6.75,-3.87 2.609,0 4.679,0.9 6.031,2.52 1.437,1.71 2.16,4.68 2.16,9.09 v 4.14 h 7.469 V 1912 c 0,-5.76 -1.262,-10.26 -3.692,-13.41 -2.429,-3.15 -6.386,-4.68 -11.968,-4.68 -5.668,0 -9.809,1.71 -12.328,5.31 m 5.668,47.43 c -1.258,-2.25 -1.891,-6.48 -1.891,-12.69 v -4.05 h 16.742 v 4.95 c 0,2.07 -0.09,3.87 -0.18,5.22 -0.089,1.35 -0.269,2.79 -0.632,4.14 -0.27,1.35 -0.719,2.43 -1.348,3.15 -0.539,0.81 -1.352,1.44 -2.34,1.89 -0.992,0.54 -2.25,0.72 -3.691,0.72 -3.149,0 -5.399,-1.08 -6.66,-3.33 m 80.371,-49.23 c -1.532,2.25 -2.34,5.58 -2.34,9.9 v 42.39 h -7.289 v 5.04 h 7.289 v 18.54 h 7.558 v -18.54 h 9.993 v -5.04 h -9.993 v -41.67 c 0,-3.06 0.36,-5.13 1.082,-6.3 0.719,-1.08 2.161,-1.71 4.321,-1.71 1.347,0 2.789,0.18 4.226,0.45 v -5.76 c -2.25,-0.36 -4.41,-0.63 -6.386,-0.63 -4.051,0 -6.84,1.08 -8.461,3.33 m -26.012,-2.61 v 59.94 h 7.562 v -59.94 h -7.562 m -20.789,0 v 83.88 h 7.648 v -83.88 h -7.648 m 20.789,68.22 v 10.26 h 7.652 v -10.26 h -7.652 m 198.991,36.36 v 79.65 h 7.56 V 2074 c 3.24,3.96 7.02,5.94 11.52,5.94 2.16,0 4.14,-0.45 5.85,-1.35 1.62,-0.9 2.97,-2.07 3.96,-3.51 0.9,-1.44 1.71,-3.24 2.25,-5.4 0.63,-2.16 0.99,-4.32 1.17,-6.48 0.18,-2.07 0.27,-4.41 0.27,-7.11 v -12.69 c 0,-3.15 -0.09,-5.94 -0.36,-8.46 -0.27,-2.52 -0.72,-4.77 -1.44,-6.93 -0.63,-2.16 -1.53,-3.96 -2.61,-5.31 -1.17,-1.44 -2.52,-2.52 -4.14,-3.33 -1.62,-0.81 -3.6,-1.17 -5.76,-1.17 -3.87,0 -7.47,1.89 -10.71,5.76 v -24.57 h -7.56 m 7.56,70.02 v -40.86 c 2.79,-2.88 5.94,-4.32 9.45,-4.32 1.35,0 2.52,0.27 3.51,0.81 0.9,0.54 1.71,1.35 2.25,2.25 0.63,0.99 1.08,2.34 1.44,3.96 0.27,1.62 0.54,3.42 0.63,5.31 0.09,1.89 0.18,4.14 0.18,6.75 v 12.78 c 0,6.39 -0.54,10.98 -1.62,13.77 -1.08,2.79 -3.24,4.14 -6.48,4.14 -3.06,0 -6.21,-1.53 -9.36,-4.59 m 37.89,-46.62 c -2.79,3.06 -4.41,7.2 -4.86,12.42 l 6.39,1.98 c 0.36,-4.59 1.44,-7.92 3.15,-10.08 1.71,-2.16 4.05,-3.15 7.11,-3.15 2.61,0 4.68,0.72 6.21,2.25 1.44,1.53 2.16,3.51 2.16,6.03 v 0.36 c -0.09,3.96 -2.52,7.92 -7.29,11.88 l -8.19,6.93 c -2.88,2.43 -4.95,4.77 -6.21,7.02 -1.35,2.25 -1.98,4.86 -1.98,7.83 0,4.41 1.35,7.74 3.96,10.17 2.61,2.34 6.03,3.51 10.35,3.51 4.41,0 7.83,-1.44 10.26,-4.23 2.34,-2.79 3.69,-6.66 3.96,-11.52 l -5.4,-1.71 c -0.18,3.96 -1.08,6.93 -2.43,8.91 -1.44,1.89 -3.42,2.88 -6.03,2.88 -2.34,0 -4.32,-0.63 -5.67,-1.98 -1.44,-1.26 -2.07,-2.97 -2.07,-5.13 0,-1.98 0.36,-3.6 1.08,-5.04 0.63,-1.35 1.98,-2.88 3.87,-4.5 l 8.46,-7.56 c 1.53,-1.35 2.7,-2.52 3.69,-3.51 0.99,-0.99 1.98,-2.25 3.06,-3.69 1.08,-1.44 1.89,-3.06 2.43,-4.77 0.54,-1.71 0.81,-3.51 0.81,-5.49 0,-4.59 -1.35,-8.1 -4.14,-10.62 -2.79,-2.52 -6.48,-3.78 -11.25,-3.78 -4.77,0 -8.55,1.53 -11.43,4.59 m -192.781,0.72 c -2.519,3.51 -3.777,9.63 -3.777,18.18 v 15.12 c 0,5.85 0.629,10.44 1.797,13.86 1.171,3.42 2.972,5.85 5.312,7.2 2.25,1.44 5.309,2.07 9.18,2.07 2.519,0 4.679,-0.27 6.39,-0.99 1.797,-0.63 3.329,-1.53 4.5,-2.79 1.168,-1.17 2.161,-2.88 2.789,-4.95 0.719,-2.07 1.168,-4.32 1.442,-6.84 0.269,-2.52 0.449,-5.58 0.449,-9.09 l -0.09,-5.4 H 933.57 v -9 c 0,-6.21 0.629,-10.53 1.801,-13.14 1.258,-2.52 3.508,-3.78 6.84,-3.78 2.609,0 4.59,0.81 6.027,2.43 1.442,1.71 2.071,4.68 2.071,9.09 v 4.14 h 7.472 v -3.33 c 0,-5.76 -1.172,-10.26 -3.601,-13.41 -2.43,-3.15 -6.481,-4.68 -11.969,-4.68 -5.762,0 -9.902,1.8 -12.422,5.31 m 5.762,47.43 c -1.352,-2.25 -1.981,-6.48 -1.981,-12.69 v -4.05 h 16.739 v 4.95 c 0,2.07 0,3.87 -0.09,5.22 -0.09,1.35 -0.36,2.79 -0.629,4.14 -0.36,1.35 -0.809,2.43 -1.352,3.24 -0.539,0.72 -1.347,1.35 -2.34,1.8 -1.078,0.54 -2.25,0.72 -3.687,0.72 -3.242,0 -5.402,-1.08 -6.66,-3.33 m -73.442,-51.3 c -2.07,0.99 -3.687,2.52 -4.859,4.5 -1.262,1.98 -2.07,4.32 -2.609,7.02 -0.539,2.61 -0.719,5.85 -0.719,9.63 v 16.65 c 0,7.56 1.168,13.23 3.508,16.92 2.34,3.78 6.48,5.58 12.422,5.58 6.027,0 10.168,-1.8 12.507,-5.49 2.34,-3.69 3.512,-9.36 3.512,-17.01 v -16.65 c 0,-3.78 -0.269,-7.02 -0.812,-9.63 -0.45,-2.7 -1.348,-5.04 -2.52,-7.02 -1.168,-1.98 -2.789,-3.51 -4.949,-4.5 -2.07,-0.99 -4.68,-1.44 -7.738,-1.44 -3.063,0 -5.582,0.45 -7.743,1.44 m 4.411,54.18 c -0.899,-0.36 -1.711,-0.9 -2.34,-1.71 l -1.442,-2.43 c -0.359,-0.81 -0.629,-1.98 -0.808,-3.33 -0.18,-1.35 -0.36,-2.7 -0.36,-3.96 -0.09,-1.17 -0.09,-2.7 -0.09,-4.59 v -17.37 c 0,-1.89 0,-3.42 0.09,-4.68 0,-1.17 0.18,-2.52 0.36,-3.87 0.179,-1.44 0.449,-2.52 0.808,-3.42 l 1.442,-2.43 c 0.629,-0.72 1.441,-1.26 2.34,-1.62 0.992,-0.36 2.07,-0.45 3.332,-0.45 1.527,0 2.789,0.27 3.867,0.81 1.082,0.54 1.89,1.26 2.429,2.07 0.633,0.9 1.082,2.07 1.352,3.6 0.27,1.53 0.539,3.06 0.629,4.41 0.09,1.44 0.09,3.33 0.09,5.58 v 17.37 c 0,2.25 0,4.14 -0.09,5.49 -0.09,1.44 -0.359,2.97 -0.629,4.5 -0.27,1.53 -0.719,2.7 -1.352,3.6 -0.539,0.81 -1.347,1.53 -2.429,2.07 -1.078,0.54 -2.34,0.81 -3.867,0.81 -1.262,0 -2.34,-0.18 -3.332,-0.45 m 190.26,-54.63 v 59.85 h 7.56 v -59.85 h -7.56 m -40.32,0 v 46.98 c 0,3.33 -0.54,5.58 -1.53,6.84 -0.99,1.26 -2.43,1.98 -4.32,1.98 -3.87,-0.09 -7.56,-2.16 -11.251,-6.3 0,-0.99 0.09,-1.71 0.09,-2.25 v -47.25 h -7.109 v 46.98 c 0,3.33 -0.539,5.58 -1.621,6.84 -0.989,1.26 -2.43,1.98 -4.321,1.98 -3.867,-0.09 -7.558,-2.16 -11.16,-6.3 v -49.5 h -7.199 v 59.85 h 7.199 v -6.03 c 3.961,4.68 8.641,7.11 14.043,7.11 5.039,0 8.098,-2.61 9.449,-7.92 4.14,5.31 9.09,7.92 14.76,7.92 2.97,0 5.4,-1.08 7.29,-3.24 1.89,-2.16 2.88,-5.58 2.88,-10.44 v -47.25 h -7.2 m -119.608,0 v 59.85 h 7.648 v -8.28 c 1.801,3.06 3.961,5.31 6.391,6.75 2.429,1.44 4.859,2.16 7.379,2.16 h 1.351 v -8.19 c -1.082,0.45 -2.34,0.63 -3.691,0.63 -4.86,0 -8.641,-2.34 -11.43,-6.93 v -45.99 h -7.648 m -79.922,0 v 83.88 h 7.922 v -78.03 h 23.847 v -5.85 H 816.93 m 239.85,68.13 v 10.26 h 7.65 v -10.26 h -7.65" />
    </clipPath>
    <clipPath
       id="clipPath58"
       clipPathUnits="userSpaceOnUse">
      <path
         inkscape:connector-curvature="0"
         id="path56"
         d="m 1209.83,2032.81 c -3.01,0 -5.29,1.12 -6.89,3.34 -1.58,2.23 -2.37,5.37 -2.37,9.46 v 48 h 7.64 v -46.43 c 0,-3.04 0.46,-5.2 1.37,-6.48 0.9,-1.28 2.34,-1.92 4.29,-1.92 3.41,0 6.95,1.95 10.63,5.87 v 48.96 h 7.59 v -59.89 h -7.59 v 6.63 c -4.46,-5.03 -9.35,-7.54 -14.67,-7.54" />
    </clipPath>
    <clipPath
       id="clipPath346"
       clipPathUnits="userSpaceOnUse">
      <path
         style="clip-rule:evenodd"
         inkscape:connector-curvature="0"
         id="path344"
         d="m 1143.63,1784.11 c -5.67,0 -9.81,1.8 -12.33,5.31 -2.52,3.6 -3.78,9.63 -3.78,18.18 v 15.12 c 0,5.85 0.54,10.44 1.71,13.86 1.26,3.51 2.97,5.85 5.31,7.29 2.34,1.35 5.4,2.07 9.18,2.07 2.52,0 4.68,-0.36 6.48,-0.99 1.8,-0.72 3.24,-1.62 4.41,-2.88 1.17,-1.17 2.16,-2.79 2.79,-4.86 0.72,-2.07 1.17,-4.41 1.44,-6.93 0.36,-2.52 0.45,-5.49 0.45,-9.09 l -0.09,-5.4 h -24.12 v -8.91 c 0,-6.21 0.54,-10.62 1.8,-13.14 1.17,-2.61 3.42,-3.87 6.75,-3.87 2.61,0 4.59,0.81 6.03,2.52 1.44,1.62 2.16,4.68 2.16,9.09 v 4.14 h 7.38 v -3.33 c 0,-5.85 -1.17,-10.35 -3.6,-13.41 -2.43,-3.15 -6.39,-4.77 -11.97,-4.77 v 0 m -6.66,52.83 c -1.26,-2.25 -1.89,-6.48 -1.89,-12.69 v -4.05 h 16.74 v 4.95 c 0,2.07 -0.09,3.78 -0.18,5.22 -0.09,1.35 -0.27,2.7 -0.63,4.05 -0.27,1.35 -0.72,2.43 -1.35,3.24 -0.54,0.81 -1.35,1.44 -2.34,1.89 -1.08,0.45 -2.25,0.72 -3.69,0.72 -3.15,0 -5.4,-1.17 -6.66,-3.33 m -65.61,-52.83 c -3.06,0 -5.67,0.54 -7.74,1.53 -2.16,0.99 -3.78,2.43 -4.95,4.41 -1.17,1.98 -2.07,4.32 -2.61,7.02 -0.45,2.7 -0.72,5.94 -0.72,9.72 v 16.56 c 0,7.65 1.17,13.32 3.51,17.01 2.43,3.69 6.57,5.58 12.51,5.58 5.94,0 10.08,-1.89 12.42,-5.58 2.34,-3.69 3.51,-9.36 3.51,-17.01 v -16.56 c 0,-3.78 -0.27,-7.02 -0.72,-9.72 -0.54,-2.7 -1.35,-5.04 -2.61,-7.02 -1.17,-1.98 -2.79,-3.42 -4.86,-4.41 -2.16,-0.99 -4.68,-1.53 -7.74,-1.53 v 0 m -3.42,55.62 c -0.9,-0.36 -1.71,-0.9 -2.25,-1.62 l -1.53,-2.43 c -0.36,-0.9 -0.63,-1.98 -0.81,-3.42 -0.18,-1.35 -0.27,-2.61 -0.36,-3.87 0,-1.26 -0.09,-2.79 -0.09,-4.68 v -17.37 c 0,-1.89 0.09,-3.42 0.09,-4.59 0.09,-1.26 0.18,-2.52 0.36,-3.96 0.18,-1.35 0.45,-2.52 0.81,-3.33 l 1.53,-2.43 c 0.54,-0.81 1.35,-1.35 2.25,-1.62 0.99,-0.36 2.07,-0.54 3.42,-0.54 1.53,0 2.79,0.27 3.78,0.81 1.08,0.54 1.89,1.26 2.52,2.07 0.54,0.9 0.99,2.07 1.26,3.6 0.36,1.62 0.54,3.06 0.63,4.5 0.09,1.44 0.09,3.24 0.09,5.49 v 17.37 c 0,2.34 0,4.14 -0.09,5.58 -0.09,1.35 -0.27,2.88 -0.63,4.41 -0.27,1.53 -0.72,2.79 -1.26,3.6 -0.63,0.81 -1.44,1.53 -2.52,2.07 -0.99,0.63 -2.25,0.9 -3.78,0.9 -1.35,0 -2.43,-0.18 -3.42,-0.54 m -36.18,-55.62 c -3.96,0 -7.56,1.98 -10.71,5.76 v -4.77 h -7.56 v 83.88 h 7.56 V 1840 c 3.15,3.96 7.02,5.94 11.43,5.94 2.25,0 4.14,-0.45 5.85,-1.44 1.62,-0.9 2.97,-2.07 3.96,-3.51 0.9,-1.44 1.71,-3.24 2.34,-5.4 0.54,-2.16 0.9,-4.32 1.17,-6.39 0.18,-2.16 0.27,-4.5 0.27,-7.2 v -12.6 c 0,-3.15 -0.18,-6.03 -0.45,-8.55 -0.27,-2.43 -0.72,-4.77 -1.44,-6.93 -0.63,-2.16 -1.53,-3.87 -2.61,-5.31 -1.08,-1.35 -2.43,-2.52 -4.05,-3.24 -1.71,-0.81 -3.6,-1.26 -5.76,-1.26 v 0 m -10.71,51.21 v -40.77 c 2.79,-2.97 5.94,-4.41 9.36,-4.41 3.24,0 5.4,1.53 6.48,4.5 0.99,2.97 1.53,7.83 1.53,14.67 V 1822 c 0,6.48 -0.54,11.07 -1.53,13.77 -1.08,2.79 -3.24,4.14 -6.57,4.14 -3.06,0 -6.12,-1.53 -9.27,-4.59 m -38.429,-51.21 c -3.512,0 -6.391,1.35 -8.641,3.87 -2.25,2.61 -3.421,5.85 -3.421,9.63 0,1.98 0.179,3.78 0.543,5.31 0.269,1.62 0.988,3.06 1.886,4.41 0.903,1.44 1.891,2.61 2.973,3.69 1.168,1.08 2.699,2.16 4.68,3.42 2.07,1.17 4.05,2.25 6.121,3.33 1.976,0.99 4.679,2.16 7.918,3.69 v 4.23 c 0,5.49 -0.539,9.36 -1.532,11.43 -1.078,2.07 -3.058,3.06 -5.847,3.06 -5.582,0 -8.371,-3.42 -8.371,-10.26 v -2.16 l -7.469,0.27 c 0,0.9 0,1.53 0.09,1.8 0.179,5.58 1.711,9.72 4.41,12.24 2.699,2.52 6.57,3.87 11.699,3.87 5.309,0 9.09,-1.62 11.25,-4.77 2.25,-3.06 3.33,-8.1 3.33,-15.03 v -29.16 c 0,-4.77 0.27,-8.73 0.63,-11.88 h -6.749 l -1.082,8.28 c -0.988,-2.61 -2.519,-4.77 -4.68,-6.57 -2.16,-1.8 -4.769,-2.7 -7.738,-2.7 v 0 m 11.16,31.77 c -1.711,-0.81 -2.972,-1.53 -3.871,-1.98 -0.808,-0.45 -1.89,-1.08 -3.148,-1.8 -1.262,-0.72 -2.16,-1.26 -2.703,-1.71 l -2.161,-1.8 -1.707,-1.89 -1.082,-1.98 -0.718,-2.52 c -0.18,-0.81 -0.27,-1.8 -0.27,-2.79 0,-2.97 0.719,-5.13 1.981,-6.57 1.347,-1.44 2.968,-2.16 4.949,-2.16 2.07,0 3.961,0.72 5.578,2.07 1.711,1.44 3.062,3.06 4.051,5.04 v 18.63 l -0.899,-0.54 m -133.293,-28.35 c -1.617,2.25 -2.429,5.4 -2.429,9.45 v 48.06 h 7.652 v -46.44 c 0,-3.06 0.449,-5.22 1.348,-6.48 0.902,-1.35 2.339,-1.98 4.32,-1.98 3.422,0 6.93,1.98 10.621,5.94 v 48.96 h 7.559 V 1785.1 H 882 v 6.66 c -4.41,-5.04 -9.359,-7.56 -14.672,-7.56 -2.969,0 -5.308,1.08 -6.84,3.33 m 46.442,0.18 c -1.532,2.25 -2.34,5.49 -2.34,9.81 v 42.39 h -7.289 v 5.13 h 7.289 v 18.45 h 7.558 v -18.45 h 9.993 v -5.13 h -9.993 v -41.67 c 0,-3.06 0.364,-5.13 1.082,-6.21 0.719,-1.17 2.161,-1.71 4.231,-1.71 1.437,0 2.879,0.09 4.32,0.36 v -5.67 c -2.25,-0.45 -4.41,-0.63 -6.39,-0.63 -4.051,0 -6.93,1.08 -8.461,3.33 m 191.43,-2.61 v 59.94 h 7.56 v -8.28 c 1.8,3.06 3.96,5.31 6.39,6.75 2.43,1.44 4.95,2.16 7.38,2.16 l 1.35,-0.09 v -8.19 c -1.08,0.45 -2.25,0.72 -3.6,0.72 -4.86,0 -8.73,-2.34 -11.52,-7.02 v -45.99 h -7.56 m -145.981,0 v 83.88 h 7.652 v -83.88 h -7.652 m 17.461,115.56 c 1.801,0.99 3.058,2.16 3.871,3.51 0.719,1.35 1.078,3.15 1.078,5.22 h -4.5 v 11.34 h 8.461 v -10.53 c 0,-3.33 -0.539,-6.03 -1.621,-7.92 -1.168,-1.98 -3.059,-3.6 -5.668,-4.95 l -1.621,3.33 m 185.13,13.59 c -2.25,3.87 -3.33,10.35 -3.33,19.35 v 11.07 c 0,3.33 0.09,6.21 0.36,8.73 0.27,2.43 0.63,4.77 1.35,7.02 0.63,2.16 1.44,3.96 2.52,5.31 0.99,1.44 2.34,2.52 4.05,3.33 1.62,0.72 3.6,1.17 5.85,1.17 3.96,-0.09 7.47,-1.8 10.53,-5.22 v 28.26 h 7.65 v -83.88 h -7.65 v 4.23 c -2.97,-3.42 -6.39,-5.13 -10.17,-5.13 -5.22,0 -8.91,1.89 -11.16,5.76 m 5.94,45.99 c -1.08,-2.7 -1.71,-7.11 -1.71,-13.14 v -14.13 c 0,-6.48 0.63,-11.25 1.71,-14.13 1.17,-2.88 3.42,-4.41 6.75,-4.41 2.88,0 5.76,1.35 8.64,3.96 v 41.58 c -2.97,2.88 -5.94,4.32 -8.91,4.32 -3.15,0 -5.31,-1.35 -6.48,-4.05 m -69.75,-45.99 c -2.25,3.87 -3.42,10.35 -3.42,19.35 v 11.07 c 0,3.33 0.18,6.21 0.36,8.73 0.27,2.43 0.72,4.77 1.35,7.02 0.63,2.16 1.44,3.96 2.52,5.31 0.99,1.44 2.34,2.52 4.05,3.33 1.62,0.72 3.6,1.17 5.85,1.17 3.96,-0.09 7.47,-1.8 10.53,-5.22 v 28.26 h 7.65 v -83.88 h -7.65 v 4.23 c -2.97,-3.42 -6.39,-5.13 -10.17,-5.13 -5.13,0 -8.91,1.89 -11.07,5.76 m 5.85,45.99 c -1.08,-2.7 -1.71,-7.11 -1.71,-13.14 v -14.13 c 0,-6.48 0.63,-11.25 1.8,-14.13 1.08,-2.88 3.33,-4.41 6.66,-4.41 2.88,0 5.85,1.35 8.64,3.96 v 41.58 c -2.97,2.88 -5.94,4.32 -8.82,4.32 -3.24,0 -5.4,-1.35 -6.57,-4.05 m -46.35,-46.44 c -2.52,3.51 -3.78,9.54 -3.78,18.09 v 15.12 c 0,5.85 0.54,10.53 1.71,13.95 1.26,3.42 2.97,5.76 5.31,7.2 2.34,1.35 5.4,2.07 9.18,2.07 2.52,0 4.68,-0.36 6.48,-0.99 1.8,-0.72 3.24,-1.62 4.41,-2.79 1.17,-1.26 2.16,-2.88 2.79,-4.95 0.72,-2.07 1.17,-4.41 1.53,-6.93 0.27,-2.43 0.36,-5.49 0.36,-9 l -0.09,-5.49 h -24.12 v -8.91 c 0,-6.21 0.54,-10.62 1.8,-13.14 1.17,-2.61 3.42,-3.87 6.75,-3.87 2.61,0 4.59,0.81 6.03,2.52 1.44,1.62 2.16,4.68 2.16,9.09 v 4.14 h 7.38 v -3.33 c 0,-5.85 -1.17,-10.26 -3.6,-13.41 -2.43,-3.15 -6.39,-4.68 -11.97,-4.68 -5.67,0 -9.81,1.71 -12.33,5.31 m 5.67,47.43 c -1.26,-2.25 -1.89,-6.48 -1.89,-12.69 v -4.05 h 16.74 v 4.95 c 0,2.07 -0.09,3.78 -0.18,5.22 -0.09,1.35 -0.27,2.7 -0.63,4.14 -0.27,1.35 -0.72,2.43 -1.35,3.15 -0.54,0.81 -1.35,1.44 -2.34,1.89 -0.99,0.45 -2.25,0.72 -3.69,0.72 -3.15,0 -5.4,-1.08 -6.66,-3.33 m -43.65,-48.15 c -2.88,3.06 -4.5,7.2 -4.86,12.42 l 6.39,1.89 c 0.36,-4.5 1.44,-7.83 3.06,-9.99 1.71,-2.16 4.05,-3.24 7.11,-3.24 2.61,0 4.68,0.81 6.21,2.34 1.44,1.44 2.16,3.51 2.16,5.94 v 0.36 c -0.09,3.96 -2.52,8.01 -7.29,11.97 l -8.1,6.93 c -2.88,2.34 -4.95,4.77 -6.3,7.02 -1.26,2.25 -1.89,4.86 -1.89,7.74 0,4.41 1.26,7.83 3.96,10.17 2.52,2.43 6.03,3.6 10.35,3.6 4.41,0 7.83,-1.44 10.17,-4.23 2.43,-2.88 3.69,-6.66 3.96,-11.52 l -5.31,-1.8 c -0.27,4.05 -1.08,7.02 -2.52,9 -1.35,1.89 -3.42,2.88 -6.03,2.88 -2.34,0 -4.23,-0.63 -5.67,-1.98 -1.35,-1.26 -2.07,-2.97 -2.07,-5.13 0,-1.98 0.36,-3.69 1.08,-5.04 0.72,-1.44 1.98,-2.97 3.87,-4.59 l 8.46,-7.56 c 1.53,-1.26 2.79,-2.43 3.78,-3.42 0.9,-0.99 1.98,-2.25 3.06,-3.69 1.08,-1.53 1.8,-3.06 2.34,-4.77 0.54,-1.71 0.81,-3.6 0.9,-5.49 0,-4.59 -1.44,-8.19 -4.23,-10.71 -2.7,-2.43 -6.48,-3.69 -11.16,-3.69 -4.77,0 -8.55,1.53 -11.43,4.59 m -151.469,0.72 c -2.52,3.51 -3.781,9.54 -3.781,18.09 v 15.12 c 0,5.85 0.629,10.53 1.8,13.95 1.168,3.42 2.969,5.76 5.219,7.2 2.34,1.35 5.403,2.07 9.18,2.07 2.519,0 4.68,-0.36 6.48,-0.99 1.801,-0.72 3.332,-1.62 4.5,-2.79 1.172,-1.26 2.071,-2.88 2.789,-4.95 0.723,-2.07 1.172,-4.41 1.442,-6.93 0.269,-2.43 0.359,-5.49 0.359,-9 v -5.49 h -24.211 v -8.91 c 0,-6.21 0.633,-10.62 1.801,-13.14 1.172,-2.61 3.422,-3.87 6.75,-3.87 2.609,0 4.68,0.81 6.121,2.52 1.352,1.62 2.07,4.68 2.07,9.09 v 4.14 h 7.469 v -3.33 c 0,-5.85 -1.258,-10.26 -3.687,-13.41 -2.434,-3.15 -6.391,-4.68 -11.883,-4.68 -5.758,0 -9.899,1.71 -12.418,5.31 m 5.668,47.43 c -1.258,-2.25 -1.891,-6.48 -1.891,-12.69 v -4.05 h 16.742 v 4.95 c 0,2.07 0,3.78 -0.089,5.22 -0.18,1.35 -0.36,2.7 -0.629,4.14 -0.364,1.35 -0.813,2.43 -1.352,3.15 -0.629,0.81 -1.441,1.44 -2.43,1.89 -0.992,0.45 -2.25,0.72 -3.601,0.72 -3.238,0 -5.488,-1.08 -6.75,-3.33 M 947.34,1912 c -1.621,2.25 -2.34,5.58 -2.43,9.9 v 42.39 h -7.199 v 5.04 h 7.199 v 18.45 h 7.559 v -18.45 h 9.992 v -5.04 h -9.992 v -41.76 c 0,-2.97 0.359,-5.04 1.082,-6.21 0.719,-1.17 2.16,-1.71 4.32,-1.71 1.348,0 2.789,0.18 4.231,0.45 v -5.76 c -2.25,-0.45 -4.321,-0.63 -6.391,-0.63 -4.051,0 -6.84,1.08 -8.371,3.33 m -26.102,-2.61 v 59.94 h 7.563 v -59.94 h -7.563 m -20.699,0 v 83.88 h 7.652 v -83.88 h -7.652 m 20.699,68.13 v 10.35 h 7.653 v -10.35 h -7.653 m 198.992,36.45 v 79.65 h 7.65 v -5.04 c 3.15,3.96 7.02,5.94 11.43,5.94 2.25,0 4.23,-0.45 5.85,-1.35 1.71,-0.9 2.97,-2.07 3.96,-3.6 0.99,-1.44 1.71,-3.24 2.34,-5.4 0.54,-2.16 0.99,-4.23 1.17,-6.39 0.18,-2.07 0.27,-4.5 0.27,-7.11 v -12.69 c 0,-3.15 -0.18,-5.94 -0.45,-8.46 -0.27,-2.52 -0.72,-4.86 -1.35,-6.93 -0.72,-2.16 -1.62,-3.96 -2.7,-5.31 -1.08,-1.44 -2.43,-2.52 -4.14,-3.33 -1.62,-0.81 -3.51,-1.17 -5.76,-1.17 -3.87,0 -7.38,1.89 -10.62,5.67 v -24.48 h -7.65 m 7.65,70.02 v -40.86 c 2.7,-2.88 5.85,-4.32 9.45,-4.32 1.35,0 2.43,0.27 3.42,0.81 0.9,0.54 1.71,1.35 2.25,2.25 0.63,0.99 1.08,2.25 1.44,3.96 0.36,1.62 0.54,3.42 0.63,5.22 0.18,1.89 0.27,4.14 0.27,6.84 v 12.78 c 0,6.39 -0.63,10.98 -1.62,13.77 -1.17,2.7 -3.33,4.14 -6.57,4.14 -3.06,0 -6.21,-1.53 -9.27,-4.59 m 37.89,-46.62 c -2.88,3.06 -4.5,7.2 -4.95,12.42 l 6.39,1.98 c 0.45,-4.59 1.44,-7.92 3.15,-10.08 1.71,-2.16 4.05,-3.24 7.11,-3.24 2.61,0 4.68,0.81 6.21,2.34 1.44,1.53 2.16,3.51 2.16,5.94 v 0.36 c -0.09,4.05 -2.52,8.01 -7.29,11.97 l -8.1,6.93 c -2.88,2.43 -4.95,4.77 -6.3,7.02 -1.26,2.25 -1.89,4.86 -1.89,7.83 0,4.32 1.26,7.74 3.96,10.17 2.52,2.34 5.94,3.51 10.35,3.51 4.41,0 7.83,-1.44 10.17,-4.23 2.34,-2.88 3.69,-6.66 3.96,-11.52 l -5.31,-1.71 c -0.27,3.96 -1.08,6.93 -2.52,8.91 -1.35,1.89 -3.42,2.88 -6.03,2.88 -2.34,0 -4.23,-0.63 -5.67,-1.98 -1.35,-1.26 -2.07,-2.97 -2.07,-5.13 0,-1.98 0.36,-3.69 1.08,-5.04 0.72,-1.44 1.98,-2.88 3.87,-4.5 l 8.46,-7.65 c 1.53,-1.26 2.79,-2.43 3.69,-3.42 0.99,-0.99 1.98,-2.25 3.06,-3.69 1.08,-1.53 1.89,-3.06 2.43,-4.77 0.54,-1.71 0.81,-3.51 0.81,-5.49 0,-4.59 -1.35,-8.1 -4.14,-10.62 -2.7,-2.52 -6.48,-3.78 -11.25,-3.78 -4.68,0 -8.55,1.53 -11.34,4.59 m -192.782,0.72 c -2.519,3.51 -3.777,9.54 -3.777,18.18 v 15.12 c 0,5.76 0.539,10.44 1.711,13.86 1.258,3.42 2.969,5.85 5.308,7.2 2.34,1.35 5.399,2.07 9.18,2.07 2.52,0 4.68,-0.36 6.481,-0.99 1.8,-0.63 3.238,-1.62 4.41,-2.79 1.168,-1.26 2.16,-2.88 2.879,-4.95 0.629,-2.07 1.17,-4.32 1.44,-6.84 0.27,-2.52 0.36,-5.58 0.36,-9.09 l -0.09,-5.4 h -24.12 v -9 c 0,-6.21 0.628,-10.62 1.8,-13.14 1.168,-2.52 3.418,-3.87 6.75,-3.87 2.61,0 4.68,0.9 6.032,2.52 1.437,1.71 2.16,4.68 2.16,9.09 v 4.14 h 7.378 v -3.33 c 0,-5.76 -1.171,-10.26 -3.601,-13.41 -2.43,-3.15 -6.391,-4.68 -11.969,-4.68 -5.672,0 -9.808,1.71 -12.332,5.31 m 5.672,47.43 c -1.262,-2.25 -1.89,-6.48 -1.89,-12.69 v -4.05 h 16.742 v 4.95 c 0,2.07 -0.09,3.87 -0.184,5.22 -0.09,1.35 -0.269,2.79 -0.629,4.14 -0.269,1.35 -0.719,2.43 -1.347,3.15 -0.543,0.81 -1.352,1.44 -2.34,1.89 -0.992,0.45 -2.25,0.72 -3.692,0.72 -3.148,0 -5.398,-1.08 -6.66,-3.33 m -73.351,-51.3 c -2.161,0.99 -3.778,2.43 -4.95,4.5 -1.168,1.98 -2.07,4.32 -2.609,6.93 -0.449,2.7 -0.719,5.94 -0.719,9.72 v 16.56 c 0,7.65 1.168,13.32 3.508,17.01 2.43,3.69 6.57,5.58 12.512,5.58 5.937,0 10.078,-1.8 12.418,-5.58 2.34,-3.69 3.511,-9.36 3.511,-17.01 v -16.56 c 0,-3.78 -0.269,-7.02 -0.718,-9.72 -0.543,-2.61 -1.352,-4.95 -2.614,-6.93 -1.168,-2.07 -2.789,-3.51 -4.859,-4.5 -2.16,-0.99 -4.68,-1.44 -7.738,-1.44 -3.063,0 -5.672,0.45 -7.742,1.44 m 4.32,54.09 c -0.899,-0.27 -1.707,-0.81 -2.25,-1.62 l -1.527,-2.43 c -0.364,-0.81 -0.633,-1.98 -0.813,-3.33 -0.18,-1.44 -0.269,-2.7 -0.359,-3.96 0,-1.17 -0.09,-2.79 -0.09,-4.59 v -17.46 c 0,-1.8 0.09,-3.33 0.09,-4.59 0.09,-1.26 0.179,-2.52 0.359,-3.87 0.18,-1.44 0.449,-2.52 0.813,-3.42 l 1.527,-2.43 c 0.543,-0.72 1.351,-1.26 2.25,-1.62 0.992,-0.36 2.07,-0.54 3.422,-0.54 1.527,0 2.789,0.27 3.777,0.9 1.082,0.54 1.891,1.26 2.524,2.07 0.539,0.81 0.988,2.07 1.257,3.6 0.36,1.53 0.539,3.06 0.629,4.41 0.09,1.44 0.09,3.24 0.09,5.49 v 17.46 c 0,2.25 0,4.05 -0.09,5.49 -0.09,1.44 -0.269,2.88 -0.629,4.5 -0.269,1.53 -0.718,2.7 -1.257,3.51 -0.633,0.9 -1.442,1.62 -2.524,2.16 -0.988,0.54 -2.25,0.81 -3.777,0.81 -1.352,0 -2.43,-0.18 -3.422,-0.54 m 190.261,-54.63 v 59.94 h 7.65 v -59.94 h -7.65 m -40.32,0 v 47.07 c 0,3.24 -0.45,5.58 -1.44,6.84 -1.08,1.26 -2.52,1.89 -4.41,1.89 -3.78,0 -7.56,-2.07 -11.25,-6.21 0.09,-0.99 0.09,-1.8 0.09,-2.34 v -47.25 h -7.11 v 47.07 c 0,3.24 -0.45,5.58 -1.53,6.84 -1.08,1.26 -2.52,1.89 -4.41,1.89 -3.78,0 -7.56,-2.07 -11.16,-6.21 v -49.59 h -7.11 v 59.94 h 7.11 v -6.12 c 3.96,4.77 8.73,7.2 14.13,7.2 4.95,0 8.1,-2.7 9.36,-7.92 4.23,5.22 9.09,7.92 14.76,7.92 2.97,0 5.4,-1.08 7.29,-3.24 1.98,-2.16 2.88,-5.67 2.88,-10.53 v -47.25 h -7.2 m -119.519,0 v 59.94 h 7.558 v -8.28 c 1.801,3.06 3.961,5.31 6.391,6.75 2.43,1.44 4.949,2.16 7.469,2.16 h 1.261 v -8.19 c -1.082,0.36 -2.25,0.63 -3.601,0.63 -4.859,0 -8.731,-2.34 -11.52,-7.02 v -45.99 h -7.558 m -80.012,0 v 83.88 h 7.922 v -77.94 h 23.937 v -5.94 h -31.859 m 239.851,68.22 v 10.26 h 7.65 v -10.26 h -7.65" />
    </clipPath>
  </defs>
  <sodipodi:namedview
     id="base"
     pagecolor="#ffffff"
     bordercolor="#666666"
     borderopacity="1.0"
     inkscape:pageopacity="0.0"
     inkscape:pageshadow="2"
     inkscape:zoom="0.30863131"
     inkscape:cx="1131.0567"
     inkscape:cy="941.84326"
     inkscape:document-units="mm"
     inkscape:current-layer="layer1"
     showgrid="false"
     inkscape:snap-to-guides="false"
     inkscape:window-width="1003"
     inkscape:window-height="1008"
     inkscape:window-x="683"
     inkscape:window-y="0"
     inkscape:window-maximized="0" />
  <metadata
     id="metadata5">
    <rdf:RDF>
      <cc:Work
         rdf:about="">
        <dc:format>image/svg+xml</dc:format>
        <dc:type
           rdf:resource="http://purl.org/dc/dcmitype/StillImage" />
        <dc:title></dc:title>
      </cc:Work>
    </rdf:RDF>
  </metadata>
  <g
     inkscape:label="Layer 1"
     inkscape:groupmode="layer"
     id="layer1"
     transform="translate(0,203)">
    <g
       transform="matrix(1.7722467,0,0,-2.0200253,-467.43358,439.17134)"
       inkscape:label="ink_ext_XXXXXX"
       id="g10">
      <g
         id="g595">
        <path
           inkscape:connector-curvature="0"
           id="path184"
           style="fill:#5f92d3;fill-opacity:1;fill-rule:nonzero;stroke:none;stroke-width:0.1"
           d="m 514.432,94.782 -0.474,1.8489 5.369,1.3761 0.474,-1.8492 -5.369,-1.3758" />
        <path
           inkscape:connector-curvature="0"
           id="path186"
           style="fill:#5f92d3;fill-opacity:1;fill-rule:nonzero;stroke:none;stroke-width:0.1"
           d="m 511.692,92.1102 -0.473,1.8488 5.369,1.3762 0.475,-1.8493 -5.371,-1.3757" />
        <path
           inkscape:connector-curvature="0"
           id="path188"
           style="fill:#5f92d3;fill-opacity:1;fill-rule:nonzero;stroke:none;stroke-width:0.1"
           d="m 508.953,89.4379 -0.474,1.8492 5.371,1.3758 0.473,-1.8488 -5.37,-1.3762" />
        <path
           inkscape:connector-curvature="0"
           id="path190"
           style="fill:#5f92d3;fill-opacity:1;fill-rule:nonzero;stroke:none;stroke-width:0.1"
           d="m 506.215,86.7672 -0.475,1.8476 5.37,1.3762 0.474,-1.848 -5.369,-1.3758" />
        <path
           inkscape:connector-curvature="0"
           id="path192"
           style="fill:#c8ddeb;fill-opacity:1;fill-rule:nonzero;stroke:none;stroke-width:0.1"
           d="m 330.068,206.295 c -3.403,-1.996 -8.942,-2.035 -12.372,-0.087 -3.43,1.949 -3.453,5.146 -0.05,7.144 3.402,1.996 8.942,2.035 12.372,0.085 3.43,-1.948 3.453,-5.146 0.05,-7.142 z m 70.917,56.575 -50.395,-29.568 c -12.777,3.921 -29.056,2.709 -39.799,-3.594 -13.069,-7.668 -12.983,-19.953 0.193,-27.437 2.958,-1.68 6.325,-2.976 9.914,-3.888 2.537,-0.645 5.184,-1.098 7.878,-1.36 10.482,-1.02 21.668,0.849 29.732,5.581 9.766,5.73 12.183,14.038 7.284,20.995 l 6.954,4.08 -0.197,4.414 7.318,0.051 -0.184,4.134 7.318,0.051 -0.185,4.135 7.319,0.051 -0.185,4.134 7.319,0.051 -0.185,4.135 7.813,0.055 2.384,1.398 2.631,10.855 -12.927,1.727" />
        <path
           inkscape:connector-curvature="0"
           id="path194"
           style="fill:#c8ddeb;fill-opacity:1;fill-rule:nonzero;stroke:none;stroke-width:0.1"
           d="m 428.555,75.8332 -67.967,39.0778 c -4.576,2.642 -4.002,7.257 1.282,10.308 l 65.965,38.085 c 5.284,3.05 13.277,3.382 17.853,0.74 l 67.966,-39.078 c 4.576,-2.643 4.002,-7.257 -1.282,-10.308 L 446.407,76.573 c -5.284,-3.0511 -13.277,-3.3832 -17.852,-0.7398" />
        <path
           inkscape:connector-curvature="0"
           id="path196"
           style="fill:#5f92d3;fill-opacity:1;fill-rule:nonzero;stroke:none;stroke-width:0.1"
           d="m 508.235,164.433 -11.75,6.784 43.324,25.012 c 2.046,1.182 2.046,3.104 0,4.286 l -44.259,25.552 c -2.046,1.182 -5.375,1.182 -7.422,0 l -43.323,-25.012 -11.751,6.783 43.324,25.014 c 8.524,4.921 22.396,4.921 30.922,-0.001 l 44.259,-25.553 c 8.525,-4.922 8.525,-12.931 10e-4,-17.853 l -43.325,-25.012" />
        <path
           inkscape:connector-curvature="0"
           id="path198"
           style="fill:#d9effb;fill-opacity:1;fill-rule:nonzero;stroke:none;stroke-width:0.1"
           d="m 527.196,161.445 c 0,6.283 -3.819,13.579 -8.531,16.3 l -78.494,45.318 c -2.11,1.218 -4.037,1.305 -5.526,0.473 l -0.005,0.003 -93.722,-54.462 90.633,-68.294 92.333,53.591 c 0.285,0.13 0.561,0.28 0.815,0.474 h 0.002 -10e-4 c 1.542,1.168 2.496,3.459 2.496,6.597" />
        <path
           inkscape:connector-curvature="0"
           id="path200"
           style="fill:#263c7a;fill-opacity:1;fill-rule:nonzero;stroke:none;stroke-width:0.1"
           d="m 431.551,100.783 92.333,53.591 c 0.285,0.13 0.561,0.28 0.815,0.474 h 0.002 l -10e-4,10e-4 c 1.542,1.167 2.496,3.458 2.496,6.596 0,2.999 -0.877,6.225 -2.3,9.077 l -105.252,-60.767 11.907,-8.972" />
        <path
           inkscape:connector-curvature="0"
           id="path202"
           style="fill:#5f92d3;fill-opacity:1;fill-rule:nonzero;stroke:none;stroke-width:0.1"
           d="m 425.647,101.025 -78.494,45.319 c -4.712,2.72 -8.53,10.017 -8.53,16.3 0,6.281 3.818,9.168 8.53,6.449 l 78.494,-45.32 c 4.712,-2.719 8.532,-10.017 8.532,-16.298 0,-6.283 -3.82,-9.1699 -8.532,-6.45" />
        <path
           inkscape:connector-curvature="0"
           id="path204"
           style="fill:#ffffff;fill-opacity:1;fill-rule:nonzero;stroke:none;stroke-width:0.1"
           d="m 413.891,116.309 -9.437,5.444 c -0.939,0.542 -1.701,1.997 -1.701,3.249 0,1.252 0.762,1.827 1.701,1.285 l 9.437,-5.443 c 0.939,-0.543 1.7,-1.997 1.7,-3.249 0,-1.252 -0.761,-1.828 -1.7,-1.286" />
        <path
           inkscape:connector-curvature="0"
           id="path206"
           style="fill:#4067b1;fill-opacity:1;fill-rule:nonzero;stroke:none;stroke-width:0.1"
           d="m 343.028,275.896 16.128,-9.162 16.456,9.656 -0.044,4.2 -0.14,-0.082 -0.013,0.296 7.318,0.051 -0.044,4.135 7.177,0.05 -0.043,4.136 7.177,0.05 -0.043,4.135 7.177,0.05 -0.043,4.136 7.672,0.054 2.383,1.398 2.632,10.856 -0.044,4.2 -1.269,-4.025 -11.614,1.551 -60.823,-35.685" />
        <path
           inkscape:connector-curvature="0"
           id="path208"
           style="fill:#d9effb;fill-opacity:1;fill-rule:nonzero;stroke:none;stroke-width:0.1"
           d="m 359.112,270.935 16.456,9.655 -0.197,4.414 7.318,0.051 -0.184,4.134 7.318,0.051 -0.184,4.135 7.318,0.051 -0.186,4.135 7.319,0.05 -0.185,4.135 7.815,0.055 2.384,1.398 2.63,10.856 -12.927,1.726 -60.822,-35.685 16.127,-9.161" />
        <path
           inkscape:connector-curvature="0"
           id="path210"
           style="fill:#4067b1;fill-opacity:1;fill-rule:nonzero;stroke:none;stroke-width:0.1"
           d="m 370.07,277.364 c -1.656,2.353 -4.144,4.552 -7.474,6.444 -2.346,1.333 -4.957,2.412 -7.725,3.261 l -11.886,-6.973 16.127,-9.161 10.958,6.429" />
        <path
           inkscape:connector-curvature="0"
           id="path212"
           style="fill:#5f92d3;fill-opacity:1;fill-rule:nonzero;stroke:none;stroke-width:0.1"
           d="m 416.293,312.232 0.441,1.823 -2.169,0.289 -51.389,-30.152 2.706,-1.537 50.411,29.577" />
        <path
           inkscape:connector-curvature="0"
           id="path214"
           style="fill:#d4d0ce;fill-opacity:1;fill-rule:nonzero;stroke:none;stroke-width:0.1"
           d="m 304.05,262.646 -0.178,5.971 1.911,-4.032 z" />
        <path
           inkscape:connector-curvature="0"
           id="path216"
           style="fill:#4067b1;fill-opacity:1;fill-rule:nonzero;stroke:none;stroke-width:0.1"
           d="m 333.018,260.382 c 3.43,-1.948 3.453,-5.147 0.05,-7.143 -3.402,-1.997 -8.942,-2.035 -12.372,-0.087 -3.43,1.95 -3.453,5.147 -0.05,7.144 3.403,1.996 8.942,2.034 12.372,0.086 z m -19.034,-11.167 c 13.177,-7.486 34.454,-7.336 47.524,0.332 6.553,3.845 9.797,8.849 9.744,13.828 l 10e-4,-0.003 -0.183,6.325 -1.074,-1.196 c -1.517,3.118 -4.405,6.055 -8.682,8.483 -13.175,7.485 -34.453,7.336 -47.522,-0.332 -13.07,-7.669 -12.984,-19.953 0.192,-27.437" />
        <path
           inkscape:connector-curvature="0"
           id="path218"
           style="fill:#f5f6f5;fill-opacity:1;fill-rule:nonzero;stroke:none;stroke-width:0.1"
           d="m 332.84,266.35 c 3.431,-1.95 3.453,-5.147 0.05,-7.144 -3.403,-1.996 -8.942,-2.035 -12.372,-0.086 -3.43,1.948 -3.453,5.147 -0.05,7.143 3.402,1.996 8.941,2.035 12.372,0.087 z m -19.033,-11.168 c 13.175,-7.485 34.453,-7.336 47.522,0.333 13.07,7.668 12.984,19.952 -0.192,27.437 -13.176,7.485 -34.453,7.336 -47.524,-0.333 -13.069,-7.668 -12.983,-19.952 0.194,-27.437" />
        <path
           inkscape:connector-curvature="0"
           id="path220"
           style="fill:#5f92d3;fill-opacity:1;fill-rule:nonzero;stroke:none;stroke-width:0.1"
           d="m 329.083,251.913 c -2.898,-0.453 -6.105,-0.057 -8.387,1.239 -2.46,1.398 -3.157,3.436 -2.106,5.215 l -5.969,4.733 c 0,0 -3.12,3.52 -6.209,7.01 -4.806,-7.025 -2.276,-15.3 7.572,-20.895 4.345,-2.469 9.214,-3.87 14.736,-4.683 l 0.363,7.381" />
        <path
           inkscape:connector-curvature="0"
           id="path222"
           style="fill:#d9effb;fill-opacity:1;fill-rule:nonzero;stroke:none;stroke-width:0.1"
           d="m 332.84,266.35 c 3.431,-1.95 3.453,-5.147 0.05,-7.144 -3.403,-1.996 -8.942,-2.035 -12.372,-0.086 -3.43,1.948 -3.453,5.147 -0.05,7.143 3.402,1.996 8.941,2.035 12.372,0.087 z m -19.033,-11.168 c 2.958,-1.68 6.324,-2.976 9.914,-3.888 2.536,-0.645 5.183,-1.098 7.878,-1.359 10.481,-1.021 21.668,0.848 29.73,5.58 13.07,7.668 12.984,19.952 -0.192,27.437 -13.176,7.485 -34.453,7.336 -47.524,-0.333 -13.069,-7.668 -12.983,-19.952 0.194,-27.437" />
        <path
           inkscape:connector-curvature="0"
           id="path224"
           style="fill:#4067b1;fill-opacity:1;fill-rule:nonzero;stroke:none;stroke-width:0.1"
           d="m 307.581,268.777 c 0.642,3.825 3.477,7.56 8.524,10.522 11.628,6.823 30.559,6.955 42.282,0.296 5.826,-3.31 8.769,-7.674 8.836,-12.064 0.836,4.986 -2.062,10.12 -8.697,13.889 -11.722,6.66 -30.653,6.527 -42.281,-0.295 -5.849,-3.433 -8.731,-7.903 -8.664,-12.348" />
        <path
           inkscape:connector-curvature="0"
           id="path226"
           style="fill:#4067b1;fill-opacity:1;fill-rule:nonzero;stroke:none;stroke-width:0.1"
           d="m 315.959,265.053 c -2.372,0 -5.03,-0.824 -7.803,-2.45 -9.864,-5.788 -17.824,-19.8 -17.742,-31.237 0.036,-5.329 1.809,-9.258 4.992,-11.064 3.182,-1.806 7.464,-1.32 12.06,1.376 9.865,5.787 17.824,19.8 17.744,31.236 -0.022,3.138 -0.663,5.871 -1.856,7.903 -0.805,1.373 -1.862,2.437 -3.138,3.163 -1.262,0.717 -2.697,1.073 -4.257,1.073 z M 299.654,214.47 c -2.367,0 -4.592,0.564 -6.593,1.701 -4.722,2.68 -7.35,8.064 -7.397,15.163 -0.093,12.947 8.919,28.812 20.088,35.366 6.119,3.591 12.089,4.093 16.811,1.41 2.011,-1.143 3.656,-2.788 4.888,-4.888 1.638,-2.791 2.482,-6.248 2.509,-10.276 0.092,-12.947 -8.921,-28.813 -20.09,-35.366 -3.525,-2.067 -7.001,-3.11 -10.216,-3.11" />
        <path
           inkscape:connector-curvature="0"
           id="path228"
           style="fill:#d9effb;fill-opacity:1;fill-rule:nonzero;stroke:none;stroke-width:0.1"
           d="m 322.162,254.544 9.381,-2.299 1.347,6.961 c -3.403,-1.996 -8.942,-2.035 -12.372,-0.086 l 1.644,-4.576" />
        <path
           inkscape:connector-curvature="0"
           id="path230"
           style="fill:#d9effb;fill-opacity:1;fill-rule:nonzero;stroke:none;stroke-width:0.1"
           d="m 313.807,255.182 c 2.958,-1.68 6.324,-2.976 9.914,-3.888 2.536,-0.645 5.183,-1.098 7.878,-1.359 10.481,-1.021 21.668,0.848 29.73,5.58 l -38.202,0.857 -9.32,-1.19" />
        <path
           inkscape:connector-curvature="0"
           id="path232"
           style="fill:#4067b1;fill-opacity:1;fill-rule:nonzero;stroke:none;stroke-width:0.1"
           d="m 327.922,250.358 c 0,0 -4.061,0.661 -8.297,2.139 v -5.861 c 2.019,-0.705 5.346,-1.725 8.195,-2.102 8.747,-1.155 0.102,5.824 0.102,5.824" />
        <path
           inkscape:connector-curvature="0"
           id="path234"
           style="fill:#5f92d3;fill-opacity:1;fill-rule:nonzero;stroke:none;stroke-width:0.1"
           d="m 321.83,251.79 c -1.746,0.515 -3.648,1.172 -5.404,1.994 -5.11,2.393 1.354,-6.471 1.354,-6.471 0,0 1.741,-0.693 4.05,-1.401 v 5.878" />
        <path
           inkscape:connector-curvature="0"
           id="path236"
           style="fill:#5f92d3;fill-opacity:1;fill-rule:nonzero;stroke:none;stroke-width:0.1"
           d="m 417.67,148.81 -16.715,-10.78 -8.137,1.321 19.875,9.608 4.977,-0.149" />
        <path
           inkscape:connector-curvature="0"
           id="path238"
           style="fill:#263c7a;fill-opacity:1;fill-rule:nonzero;stroke:none;stroke-width:0.1"
           d="m 397.461,94.382 c 0,0 -4.815,2.4289 -7.772,-1.1879 -2.956,-3.6152 -7.183,-12.1492 -7.314,-17.9171 -0.131,-5.7661 4.564,-5.3782 7.354,-4.0122 2.792,1.3653 10.944,13.1903 11.438,15.5071 0.493,2.3179 -0.582,5.4511 -1.367,6.064 -0.784,0.6129 -2.339,1.5461 -2.339,1.5461" />
        <path
           inkscape:connector-curvature="0"
           id="path240"
           style="fill:#5f92d3;fill-opacity:1;fill-rule:nonzero;stroke:none;stroke-width:0.1"
           d="m 398.512,95.5422 0.222,-4.9883 c 0.048,-1.0609 -0.485,-2.0707 -1.409,-2.5949 -0.841,-0.477 -2.062,-0.843 -3.714,-0.577 -3.627,0.5828 -3.951,1.6192 -4.21,6.6059 -0.258,4.9871 9.111,1.5543 9.111,1.5543" />
        <path
           inkscape:connector-curvature="0"
           id="path242"
           style="fill:#263c7a;fill-opacity:1;fill-rule:nonzero;stroke:none;stroke-width:0.1"
           d="m 379.837,103.974 c 0,0 -4.815,2.427 -7.772,-1.188 -2.956,-3.6149 -7.183,-12.1501 -7.314,-17.918 -0.131,-5.766 4.564,-5.377 7.354,-4.0129 2.791,1.366 10.944,13.191 11.437,15.5078 0.494,2.318 -0.581,5.4501 -1.366,6.0641 -0.784,0.613 -2.339,1.547 -2.339,1.547" />
        <path
           inkscape:connector-curvature="0"
           id="path244"
           style="fill:#5f92d3;fill-opacity:1;fill-rule:nonzero;stroke:none;stroke-width:0.1"
           d="m 380.888,105.134 0.222,-4.988 c 0.048,-1.0608 -0.485,-2.0722 -1.409,-2.596 -0.841,-0.477 -2.062,-0.843 -3.714,-0.577 -3.627,0.5829 -3.951,1.6192 -4.21,6.606 -0.258,4.987 9.111,1.555 9.111,1.555" />
        <path
           inkscape:connector-curvature="0"
           id="path246"
           style="fill:#d9effb;fill-opacity:1;fill-rule:nonzero;stroke:none;stroke-width:0.1"
           d="m 423.849,196.712 c -1.425,23.186 -25.11,-3.411 -25.11,-3.411 l -16.211,-15.889 -14.597,-16.036 c -2.851,-3.131 -4.177,-7.36 -3.625,-11.559 l 5.904,-44.963 c 0.292,-2.221 2.192,-3.859 4.432,-3.841 0.632,0.005 1.357,0.062 2.187,0.191 5.268,0.82 4.879,5.829 4.879,5.829 l -1.079,42.055 30.655,18.479 c 0,0 13.989,5.959 12.565,29.145" />
        <path
           inkscape:connector-curvature="0"
           id="path248"
           style="fill:#5f92d3;fill-opacity:1;fill-rule:nonzero;stroke:none;stroke-width:0.1"
           d="m 392.343,157.036 -4.363,1.602 c -0.101,0 -7.415,-7.075 -7.351,-9.55 l 3.281,-1.054 8.241,7.999 0.192,1.003" />
        <path
           inkscape:connector-curvature="0"
           id="path250"
           style="fill:#5f92d3;fill-opacity:1;fill-rule:nonzero;stroke:none;stroke-width:0.1"
           d="m 417.67,148.81 c 0,0 18.218,10.402 20.398,14.763 0.855,1.708 2.182,3.492 -3.134,6.074 l -24.296,-17.319 1.053,-5.963 5.979,2.445" />
        <path
           inkscape:connector-curvature="0"
           id="path252"
           style="fill:#d9effb;fill-opacity:1;fill-rule:nonzero;stroke:none;stroke-width:0.1"
           d="m 441.474,187.765 c -1.52,23.179 -25.111,-3.411 -25.111,-3.411 l -16.211,-15.89 -14.597,-16.035 c -2.851,-3.132 -4.177,-7.361 -3.625,-11.56 l 5.905,-44.9639 c 0.291,-2.2199 2.191,-3.8582 4.431,-3.841 0.632,0.0058 1.357,0.0629 2.187,0.1929 5.268,0.82 4.879,5.8289 4.879,5.8289 l -1.079,42.0541 30.655,18.48 c 0,0 13.954,7.952 12.566,29.145" />
        <path
           inkscape:connector-curvature="0"
           id="path254"
           style="fill:#5f92d3;fill-opacity:1;fill-rule:nonzero;stroke:none;stroke-width:0.1"
           d="m 427.461,262.307 c 17.957,-7.446 17.597,-18.06 17.597,-18.06 0,0 -3.518,-38.914 -2.317,-64.902 0.502,-10.865 -57.722,-11.694 -49.039,17.291 10.237,34.175 6.401,61.842 11.193,66.014 4.793,4.173 17.921,1.582 22.566,-0.343" />
        <path
           inkscape:connector-curvature="0"
           id="path256"
           style="fill:#fab6a9;fill-opacity:1;fill-rule:nonzero;stroke:none;stroke-width:0.1"
           d="m 433.238,252.895 c -0.939,-3.646 -5.716,-5.568 -10.669,-4.291 -4.954,1.275 -8.208,5.265 -7.268,8.911 0.939,3.646 5.716,5.567 10.669,4.292 4.953,-1.277 8.208,-5.267 7.268,-8.912" />
        <path
           inkscape:connector-curvature="0"
           id="path258"
           style="fill:#ffffff;fill-opacity:1;fill-rule:nonzero;stroke:none;stroke-width:0.1"
           d="m 422.897,261.345 c -3.334,0 -6.123,-1.552 -6.765,-4.044 -0.384,-1.492 0.062,-3.122 1.259,-4.588 1.257,-1.542 3.172,-2.706 5.392,-3.278 4.487,-1.152 8.804,0.492 9.624,3.673 0.384,1.493 -0.062,3.122 -1.259,4.588 -1.257,1.543 -3.172,2.707 -5.392,3.28 -0.973,0.25 -1.937,0.369 -2.859,0.369 z m 2.704,-13.991 c -1.053,0 -2.146,0.135 -3.246,0.418 -2.572,0.663 -4.807,2.032 -6.295,3.856 -1.55,1.899 -2.115,4.066 -1.59,6.101 1.054,4.099 6.311,6.303 11.714,4.909 2.572,-0.662 4.807,-2.033 6.295,-3.857 1.55,-1.9 2.115,-4.066 1.59,-6.1 -0.84,-3.265 -4.346,-5.327 -8.468,-5.327" />
        <path
           inkscape:connector-curvature="0"
           id="path260"
           style="fill:#fab6a9;fill-opacity:1;fill-rule:nonzero;stroke:none;stroke-width:0.1"
           d="m 420.262,263.116 c 0,0 0.154,-0.72 -0.157,-6.41 -0.097,-1.789 6.166,-3.46 7.786,-1.841 1.619,1.619 0.971,3.303 1.36,9.391 0.389,6.088 -8.989,-1.14 -8.989,-1.14" />
        <path
           inkscape:connector-curvature="0"
           id="path262"
           style="fill:#eb8b8a;fill-opacity:1;fill-rule:nonzero;stroke:none;stroke-width:0.1"
           d="m 429.251,264.256 c 0,0 -1.543,-5.645 -9.147,-7.81 l 0.116,5.13 9.031,2.68" />
        <path
           inkscape:connector-curvature="0"
           id="path264"
           style="fill:#fab6a9;fill-opacity:1;fill-rule:nonzero;stroke:none;stroke-width:0.1"
           d="m 434.067,278.598 c 1.912,-7.391 -2.531,-14.931 -9.921,-16.842 -7.391,-1.91 -14.931,2.532 -16.842,9.923 -1.911,7.39 2.531,14.93 9.922,16.842 7.39,1.91 14.931,-2.533 16.841,-9.923" />
        <path
           inkscape:connector-curvature="0"
           id="path266"
           style="fill:#eb8b8a;fill-opacity:1;fill-rule:nonzero;stroke:none;stroke-width:0.1"
           d="m 423.86,274.631 c 0,0 -7.61,-3.26 -12.88,-3.297 -5.269,-0.038 -4.107,4.375 -4.107,4.375 l 15.642,2.261 1.345,-3.339" />
        <path
           inkscape:connector-curvature="0"
           id="path268"
           style="fill:#ee1696;fill-opacity:1;fill-rule:nonzero;stroke:none;stroke-width:0.1"
           d="m 409.41,273.772 c 0,0 6.629,2.814 12.444,1.641 1.368,-0.276 2.635,-1.008 3.515,-2.089 0.288,-0.353 0.652,-0.676 1.064,-0.769 1.031,-0.234 2.719,4.045 4.724,4.142 2.004,0.098 3.342,-1.321 1.698,-3.953 -1.643,-2.631 -1.087,-5.576 -0.332,-5.998 0.757,-0.422 8.778,5.721 1.703,19.737 -7.076,14.016 -25.048,6.467 -27.844,3.626 0,0 -2.944,-2.565 -5.339,-0.282 0,0 -2.685,-20.108 8.367,-16.055" />
        <path
           inkscape:connector-curvature="0"
           id="path270"
           style="fill:#fab6a9;fill-opacity:1;fill-rule:nonzero;stroke:none;stroke-width:0.1"
           d="m 434.984,215.816 v -10.514 c 0,-1.205 -0.506,-2.354 -1.397,-3.166 l -21.601,-19.694 2.454,-3.753 28.527,20.689 c 1.331,0.966 2.189,2.451 2.361,4.087 l 1.929,18.338 -12.273,-5.987" />
        <path
           inkscape:connector-curvature="0"
           id="path272"
           style="fill:#5f92d3;fill-opacity:1;fill-rule:nonzero;stroke:none;stroke-width:0.1"
           d="m 443.537,249.505 c 0,0 6.554,-9.856 8.995,-35.797 0,0 -11.194,-3.62 -17.548,-1.564 -6.352,2.054 8.553,37.361 8.553,37.361" />
        <path
           inkscape:connector-curvature="0"
           id="path274"
           style="fill:#4067b1;fill-opacity:1;fill-rule:nonzero;stroke:none;stroke-width:0.1"
           d="m 433.788,237.044 c 0,0 -2.565,-13.731 -2.711,-20.184 -0.04,-1.773 1.043,-3.374 2.711,-3.977 v 24.161" />
        <path
           inkscape:connector-curvature="0"
           id="path276"
           style="fill:#263c7a;fill-opacity:1;fill-rule:nonzero;stroke:none;stroke-width:0.1"
           d="m 428.184,168.77 -4.775,0.63 -30.818,17.793 c -0.988,0.571 -2.714,0.499 -3.855,-0.16 l -21.838,-12.603 -2.886,0.382 v -2.875 h 0.003 c -0.02,-0.378 0.196,-0.743 0.662,-1.012 l 34.927,-20.164 c 0.988,-0.572 2.713,-0.499 3.854,0.159 l 23.783,13.726 c 0.642,0.371 0.961,0.848 0.943,1.296 v 2.828" />
        <path
           inkscape:connector-curvature="0"
           id="path278"
           style="fill:#4067b1;fill-opacity:1;fill-rule:nonzero;stroke:none;stroke-width:0.1"
           d="m 405.027,180.013 -2.189,1.264 h -24.072 l -11.868,-6.847 -2.886,0.382 v -2.875 h 0.003 c -0.02,-0.378 0.196,-0.743 0.662,-1.012 l 34.927,-20.164 c 0.522,-0.302 1.25,-0.422 1.989,-0.373 l 3.434,29.625" />
        <path
           inkscape:connector-curvature="0"
           id="path280"
           style="fill:#5f92d3;fill-opacity:1;fill-rule:nonzero;stroke:none;stroke-width:0.1"
           d="m 365.293,174.643 -1.281,0.169 v -2.875 h 0.003 c -0.02,-0.378 0.196,-0.743 0.662,-1.012 l 0.616,-0.355 v 4.073" />
        <path
           inkscape:connector-curvature="0"
           id="path282"
           style="fill:#2e4b8d;fill-opacity:1;fill-rule:nonzero;stroke:none;stroke-width:0.1"
           d="m 399.955,150.597 c 0.937,-0.355 2.275,-0.278 3.275,0.204 v 4.888 h -3.275 v -5.092" />
        <path
           inkscape:connector-curvature="0"
           id="path284"
           style="fill:#ffffff;fill-opacity:1;fill-rule:nonzero;stroke:none;stroke-width:0.1"
           d="m 399.604,153.633 -34.927,20.164 c -0.988,0.57 -0.864,1.567 0.277,2.225 l 23.782,13.727 c 1.141,0.658 2.867,0.73 3.855,0.159 l 34.927,-20.164 c 0.988,-0.57 0.864,-1.567 -0.277,-2.225 l -23.783,-13.727 c -1.141,-0.658 -2.866,-0.73 -3.854,-0.159" />
        <path
           inkscape:connector-curvature="0"
           id="path286"
           style="fill:#d9effb;fill-opacity:1;fill-rule:nonzero;stroke:none;stroke-width:0.1"
           d="m 399.013,156.688 -29.041,16.768 c -0.822,0.474 -0.719,1.303 0.23,1.851 l 12.744,7.166 c 0.949,0.548 2.384,0.607 3.205,0.132 l 29.041,-16.766 c 0.822,-0.475 0.719,-1.303 -0.23,-1.851 l -12.744,-7.167 c -0.948,-0.547 -2.384,-0.606 -3.205,-0.133" />
        <path
           inkscape:connector-curvature="0"
           id="path288"
           style="fill:#fab6a9;fill-opacity:1;fill-rule:nonzero;stroke:none;stroke-width:0.1"
           d="m 390.087,190.411 -0.361,-2.41 c -0.309,-2.054 -0.255,-4.145 0.157,-6.18 l 0.43,-2.123 c 0.243,-1.198 1.19,-2.127 2.392,-2.345 0.94,-0.171 1.826,0.488 1.933,1.437 l 0.576,5.151 c 0,0 1.318,-1.726 1.955,-1.726 0.636,0 -0.713,5.159 -2.151,8.079 -1.44,2.92 -4.931,0.117 -4.931,0.117" />
        <path
           inkscape:connector-curvature="0"
           id="path290"
           style="fill:#fab6a9;fill-opacity:1;fill-rule:nonzero;stroke:none;stroke-width:0.1"
           d="m 401.926,228.712 -3.747,-7.417 c -0.887,-1.754 -1.408,-3.67 -1.534,-5.631 l -1.627,-25.37 -4.931,0.117 -2.238,28.491 c -0.069,0.88 -0.027,1.765 0.128,2.634 l 2.555,14.448 11.394,-7.272" />
        <path
           inkscape:connector-curvature="0"
           id="path292"
           style="fill:#263c7a;fill-opacity:1;fill-rule:nonzero;stroke:none;stroke-width:0.1"
           d="m 398.421,151.695 -2.929,3.824 -30.797,17.831 c -0.987,0.571 -1.786,2.102 -1.785,3.42 l 0.028,25.213 -1.772,2.312 1.664,0.964 0.002,-0.002 c 0.318,0.205 0.742,0.199 1.208,-0.07 l 34.901,-20.208 c 0.988,-0.571 1.787,-2.102 1.786,-3.419 l -0.03,-27.46 c -10e-4,-0.742 -0.255,-1.256 -0.653,-1.464 l -1.623,-0.941" />
        <path
           inkscape:connector-curvature="0"
           id="path294"
           style="fill:#4067b1;fill-opacity:1;fill-rule:nonzero;stroke:none;stroke-width:0.1"
           d="m 377.123,166.153 -2.187,1.268 -12.011,20.861 0.013,13.701 -1.772,2.312 1.664,0.964 0.002,-0.002 c 0.318,0.205 0.742,0.199 1.208,-0.07 l 34.901,-20.208 c 0.522,-0.301 0.99,-0.873 1.316,-1.538 l -23.134,-17.288" />
        <path
           inkscape:connector-curvature="0"
           id="path296"
           style="fill:#5f92d3;fill-opacity:1;fill-rule:nonzero;stroke:none;stroke-width:0.1"
           d="m 361.952,203.27 -0.786,1.025 1.664,0.964 0.002,-0.002 c 0.318,0.205 0.742,0.199 1.208,-0.07 l 0.614,-0.356 -2.702,-1.561" />
        <path
           inkscape:connector-curvature="0"
           id="path298"
           style="fill:#2e4b8d;fill-opacity:1;fill-rule:nonzero;stroke:none;stroke-width:0.1"
           d="m 399.259,184.756 c 0.775,-0.634 1.376,-1.833 1.458,-2.94 l -3.411,-1.969 -1.634,2.839 3.587,2.07" />
        <path
           inkscape:connector-curvature="0"
           id="path300"
           style="fill:#5f92d3;fill-opacity:1;fill-rule:nonzero;stroke:none;stroke-width:0.1"
           d="m 397.279,184.017 -34.901,20.208 c -0.988,0.571 -1.789,-0.034 -1.791,-1.351 l -0.029,-27.459 c -0.002,-1.317 0.796,-2.849 1.784,-3.421 l 34.902,-20.207 c 0.987,-0.571 1.789,0.033 1.791,1.351 l 0.029,27.459 c 10e-4,1.317 -0.797,2.848 -1.785,3.42" />
        <path
           inkscape:connector-curvature="0"
           id="path302"
           style="fill:#fab6a9;fill-opacity:1;fill-rule:nonzero;stroke:none;stroke-width:0.1"
           d="m 414.44,178.689 -0.559,-1.159 c -0.644,-1.334 -1.656,-2.456 -2.917,-3.233 l -3.467,-2.137 c -1.078,-0.665 -2.444,-0.72 -3.539,-0.082 l -0.118,0.071 c -1.102,0.691 -1.201,2.273 -0.295,3.205 l 3.623,3.724 c 0,0 -2.035,-1.559 -2.605,-0.932 -0.418,0.461 1.973,2.707 3.809,2.781 1.837,0.073 3.614,1.515 3.614,1.515 l 2.454,-3.753" />
        <path
           inkscape:connector-curvature="0"
           id="path304"
           style="fill:#5f92d3;fill-opacity:1;fill-rule:nonzero;stroke:none;stroke-width:0.1"
           d="m 405.254,262.705 c 0,0 -13.28,-14.451 -18.638,-27.708 0,0 4.541,-8.182 15.658,-11.393 11.117,-3.21 2.98,39.101 2.98,39.101" />
        <path
           inkscape:connector-curvature="0"
           id="path306"
           style="fill:#4067b1;fill-opacity:1;fill-rule:nonzero;stroke:none;stroke-width:0.1"
           d="m 399.773,224.462 2.153,20.794 -5.072,-19.483 c 0.904,-0.47 1.882,-0.909 2.919,-1.311" />
        <path
           inkscape:connector-curvature="0"
           id="path308"
           style="fill:#ffffff;fill-opacity:1;fill-rule:nonzero;stroke:none;stroke-width:0.1"
           d="m 415.201,265.621 -3.568,0.981 c 0,0 1.704,-2.681 4.191,-3.364 2.488,-0.683 2.874,1.422 2.874,1.422 l -3.497,0.961" />
        <path
           inkscape:connector-curvature="0"
           id="path310"
           style="fill:#d9effb;fill-opacity:1;fill-rule:nonzero;stroke:none;stroke-width:0.1"
           d="m 347.468,315.377 c -4.31,0 -7.815,-3.505 -7.815,-7.814 0,-4.31 3.505,-7.815 7.815,-7.815 4.309,0 7.814,3.505 7.814,7.815 0,4.309 -3.505,7.814 -7.814,7.814 z m 0,-17.811 c -5.512,0 -9.996,4.485 -9.996,9.997 0,5.511 4.484,9.996 9.996,9.996 5.511,0 9.996,-4.485 9.996,-9.996 0,-5.512 -4.485,-9.997 -9.996,-9.997" />
        <path
           inkscape:connector-curvature="0"
           id="path312"
           style="fill:#5f92d3;fill-opacity:1;fill-rule:nonzero;stroke:none;stroke-width:0.1"
           d="m 549.554,237.529 c -2.706,0 -4.908,-2.201 -4.908,-4.907 0,-2.705 2.202,-4.906 4.908,-4.906 2.705,0 4.906,2.201 4.906,4.906 0,2.706 -2.201,4.907 -4.906,4.907 z m 0,-11.995 c -3.908,0 -7.089,3.18 -7.089,7.088 0,3.908 3.181,7.089 7.089,7.089 3.908,0 7.088,-3.181 7.088,-7.089 0,-3.908 -3.18,-7.088 -7.088,-7.088" />
        <path
           inkscape:connector-curvature="0"
           id="path314"
           style="fill:#5f92d3;fill-opacity:1;fill-rule:nonzero;stroke:none;stroke-width:0.1"
           d="m 315.247,106.264 2.886,-5.871 5.871,2.885 -2.886,5.871 z m 1.892,-8.791 -4.812,9.785 9.785,4.811 4.812,-9.785 -9.785,-4.811" />
        <path
           inkscape:connector-curvature="0"
           id="path316"
           style="fill:#5f92d3;fill-opacity:1;fill-rule:nonzero;stroke:none;stroke-width:0.1"
           d="m 457.273,257.939 2.886,-5.872 5.871,2.886 -2.885,5.872 z m 1.892,-8.792 -4.811,9.787 9.785,4.811 4.811,-9.786 -9.785,-4.812" />
        <path
           inkscape:connector-curvature="0"
           id="path318"
           style="fill:#5f92d3;fill-opacity:1;fill-rule:nonzero;stroke:none;stroke-width:0.1"
           d="m 306.21,152.649 -4.499,-2.212 -2.211,4.5 4.498,2.211 2.212,-4.499" />
        <path
           inkscape:connector-curvature="0"
           id="path320"
           style="fill:#d1078d;fill-opacity:1;fill-rule:nonzero;stroke:none;stroke-width:0.1"
           d="m 480.313,302.246 -26.739,15.437 c -0.529,0.305 -1.008,0.317 -1.383,0.111 l 0.002,0.017 -2.593,-1.498 c 0,0 1.148,-0.418 1.823,-0.667 v -19.471 c 0,-1.584 0.963,-3.425 2.151,-4.111 l 25.557,-14.755 v -2.285 l 2.62,1.509 -0.014,0.005 c 0.443,0.271 0.727,0.862 0.727,1.715 v 19.882 c 0,1.585 -0.963,3.425 -2.151,4.111" />
        <path
           inkscape:connector-curvature="0"
           id="path322"
           style="fill:#ee1696;fill-opacity:1;fill-rule:nonzero;stroke:none;stroke-width:0.1"
           d="m 477.671,275.104 -26.738,15.438 c -1.189,0.686 -2.152,2.526 -2.152,4.11 v 19.882 c 0,1.584 0.963,2.313 2.152,1.627 l 26.738,-15.438 c 1.188,-0.686 2.151,-2.526 2.151,-4.111 V 276.73 c 0,-1.584 -0.963,-2.312 -2.151,-1.626" />
        <path
           inkscape:connector-curvature="0"
           id="path324"
           style="fill:#ffffff;fill-opacity:1;fill-rule:nonzero;stroke:none;stroke-width:0.1"
           d="m 459.925,297.394 c 0,-1.151 -0.808,-1.618 -1.805,-1.042 -0.996,0.575 -1.804,1.974 -1.804,3.125 0,1.15 0.808,1.616 1.804,1.041 0.997,-0.576 1.805,-1.974 1.805,-3.124" />
        <path
           inkscape:connector-curvature="0"
           id="path326"
           style="fill:#ffffff;fill-opacity:1;fill-rule:nonzero;stroke:none;stroke-width:0.1"
           d="m 465.39,294.237 c 0,-1.15 -0.808,-1.616 -1.804,-1.041 -0.996,0.575 -1.805,1.975 -1.805,3.125 0,1.151 0.809,1.616 1.805,1.041 0.996,-0.575 1.804,-1.973 1.804,-3.125" />
        <path
           inkscape:connector-curvature="0"
           id="path328"
           style="fill:#ffffff;fill-opacity:1;fill-rule:nonzero;stroke:none;stroke-width:0.1"
           d="m 470.855,291.082 c 0,-1.15 -0.807,-1.616 -1.804,-1.041 -0.996,0.575 -1.804,1.974 -1.804,3.125 0,1.15 0.808,1.616 1.804,1.041 0.997,-0.575 1.804,-1.975 1.804,-3.125" />
        <path
           inkscape:connector-curvature="0"
           id="path330"
           style="fill:#5f92d3;fill-opacity:1;fill-rule:nonzero;stroke:none;stroke-width:0.1"
           d="m 295.473,133.092 -26.231,15.144 c -0.519,0.3 -0.989,0.312 -1.356,0.11 l 0.002,0.016 -2.545,-1.469 c 0,0 1.127,-0.412 1.788,-0.654 v -19.102 c 0,-1.555 0.945,-3.361 2.111,-4.033 l 25.072,-14.476 v -2.241 l 2.571,1.48 -0.014,0.005 c 0.434,0.265 0.713,0.847 0.713,1.683 v 19.505 c 0,1.553 -0.945,3.359 -2.111,4.032" />
        <path
           inkscape:connector-curvature="0"
           id="path332"
           style="fill:#d9effb;fill-opacity:1;fill-rule:nonzero;stroke:none;stroke-width:0.1"
           d="m 292.882,106.466 -26.231,15.144 c -1.166,0.673 -2.111,2.479 -2.111,4.033 v 19.504 c 0,1.554 0.945,2.269 2.111,1.596 l 26.231,-15.144 c 1.166,-0.673 2.111,-2.479 2.111,-4.034 v -19.504 c 0,-1.554 -0.945,-2.269 -2.111,-1.595" />
        <path
           inkscape:connector-curvature="0"
           id="path334"
           style="fill:#ffffff;fill-opacity:1;fill-rule:nonzero;stroke:none;stroke-width:0.1"
           d="m 275.472,128.331 c 0,-1.128 -0.792,-1.586 -1.77,-1.021 -0.977,0.564 -1.77,1.936 -1.77,3.065 0,1.129 0.793,1.586 1.77,1.021 0.978,-0.563 1.77,-1.936 1.77,-3.065" />
        <path
           inkscape:connector-curvature="0"
           id="path336"
           style="fill:#ffffff;fill-opacity:1;fill-rule:nonzero;stroke:none;stroke-width:0.1"
           d="m 280.834,125.236 c 0,-1.129 -0.792,-1.587 -1.77,-1.022 -0.978,0.564 -1.77,1.937 -1.77,3.065 0,1.129 0.792,1.587 1.77,1.023 0.978,-0.565 1.77,-1.938 1.77,-3.066" />
        <path
           inkscape:connector-curvature="0"
           id="path338"
           style="fill:#ffffff;fill-opacity:1;fill-rule:nonzero;stroke:none;stroke-width:0.1"
           d="m 286.195,122.141 c 0,-1.129 -0.792,-1.587 -1.769,-1.023 -0.978,0.565 -1.77,1.938 -1.77,3.066 0,1.128 0.792,1.587 1.77,1.022 0.977,-0.564 1.769,-1.937 1.769,-3.065" />
      </g>
    </g>
  </g>
</svg>
